<?xml version="1.0" encoding="UTF-8" standalone="no"?>
<!-- Created with Inkscape (http://www.inkscape.org/) -->

<svg
   width="209.36823mm"
   height="390.97064mm"
   viewBox="0 0 209.36822 390.97064"
   version="1.1"
   id="svg8"
   inkscape:version="1.1.1 (3bf5ae0d25, 2021-09-20)"
   sodipodi:docname="NO 0416 Romedal.svg"
   xmlns:inkscape="http://www.inkscape.org/namespaces/inkscape"
   xmlns:sodipodi="http://sodipodi.sourceforge.net/DTD/sodipodi-0.dtd"
   xmlns:xlink="http://www.w3.org/1999/xlink"
   xmlns="http://www.w3.org/2000/svg"
   xmlns:svg="http://www.w3.org/2000/svg"
   xmlns:rdf="http://www.w3.org/1999/02/22-rdf-syntax-ns#"
   xmlns:cc="http://creativecommons.org/ns#"
   xmlns:dc="http://purl.org/dc/elements/1.1/">
  <defs
     id="defs2">
    <linearGradient
       id="Red"
       inkscape:collect="always">
      <stop
         id="stop3039"
         offset="0"
         style="stop-color:#ff5555;stop-opacity:1" />
      <stop
         id="stop3041"
         offset="1"
         style="stop-color:#cc0000;stop-opacity:1" />
    </linearGradient>
    <linearGradient
       inkscape:collect="always"
       id="Gray">
      <stop
         style="stop-color:#cccccc;stop-opacity:1"
         offset="0"
         id="stop2960" />
      <stop
         style="stop-color:#aaaaaa;stop-opacity:1"
         offset="1"
         id="stop2962" />
    </linearGradient>
    <linearGradient
       inkscape:collect="always"
       xlink:href="#Gray"
       id="linearGradient2966"
       x1="-11.569335"
       y1="370.37411"
       x2="231.11111"
       y2="370.37411"
       gradientUnits="userSpaceOnUse"
       gradientTransform="translate(-33.220828,8.0908828)" />
    <linearGradient
       inkscape:collect="always"
       xlink:href="#Gray"
       id="linearGradient2992"
       gradientUnits="userSpaceOnUse"
       gradientTransform="matrix(3.7795276,0,0,3.7795276,273.74182,-610.15862)"
       x1="-11.569335"
       y1="370.37411"
       x2="340.80695"
       y2="369.242" />
    <linearGradient
       inkscape:collect="always"
       xlink:href="#Gray"
       id="linearGradient3027"
       gradientUnits="userSpaceOnUse"
       gradientTransform="matrix(3.7795276,0,0,3.7795276,273.74182,-610.15863)"
       x1="270.79187"
       y1="542.01965"
       x2="307.49612"
       y2="541.68787" />
    <linearGradient
       inkscape:collect="always"
       xlink:href="#Gray"
       id="linearGradient3029"
       gradientUnits="userSpaceOnUse"
       gradientTransform="matrix(3.7795276,0,0,3.7795276,-496.15076,-678.20354)"
       x1="274.62195"
       y1="508.94736"
       x2="318.5878"
       y2="509.08102" />
    <linearGradient
       inkscape:collect="always"
       xlink:href="#Gray"
       id="linearGradient3031"
       gradientUnits="userSpaceOnUse"
       gradientTransform="matrix(3.7795276,0,0,3.7795276,273.74182,-610.15863)"
       x1="255.44537"
       y1="510.88507"
       x2="280.73645"
       y2="509.47546" />
    <linearGradient
       inkscape:collect="always"
       xlink:href="#Gray"
       id="linearGradient3033"
       gradientUnits="userSpaceOnUse"
       gradientTransform="matrix(3.7795276,0,0,3.7795276,-496.15076,-678.20354)"
       x1="272.79895"
       y1="483.70599"
       x2="323.91571"
       y2="484.12558" />
    <linearGradient
       inkscape:collect="always"
       xlink:href="#Gray"
       id="linearGradient3035"
       gradientUnits="userSpaceOnUse"
       gradientTransform="matrix(3.7795276,0,0,3.7795276,273.74182,-610.15863)"
       x1="243.31082"
       y1="482.12262"
       x2="274.27115"
       y2="481.1564" />
    <linearGradient
       inkscape:collect="always"
       xlink:href="#Gray"
       id="linearGradient3037"
       gradientUnits="userSpaceOnUse"
       gradientTransform="matrix(3.7795276,0,0,3.7795276,-496.15076,-678.20354)"
       x1="263.30984"
       y1="438.16162"
       x2="323.21906"
       y2="438.16162" />
    <linearGradient
       inkscape:collect="always"
       xlink:href="#Gray"
       id="linearGradient3164"
       gradientUnits="userSpaceOnUse"
       gradientTransform="matrix(3.7795276,0,0,3.7795276,273.74182,-610.15862)"
       x1="268.40164"
       y1="358.47748"
       x2="340.73578"
       y2="358.9436" />
    <linearGradient
       inkscape:collect="always"
       xlink:href="#Gray"
       id="linearGradient3166"
       gradientUnits="userSpaceOnUse"
       gradientTransform="matrix(3.7795276,0,0,3.7795276,273.74182,-610.15862)"
       x1="216.7581"
       y1="382.86298"
       x2="280.4093"
       y2="382.83276" />
    <linearGradient
       inkscape:collect="always"
       xlink:href="#Gray"
       id="linearGradient3168"
       gradientUnits="userSpaceOnUse"
       gradientTransform="matrix(3.7795276,0,0,3.7795276,273.74182,-610.15862)"
       x1="240.54509"
       y1="416.27167"
       x2="295.46899"
       y2="415.20258" />
    <linearGradient
       inkscape:collect="always"
       xlink:href="#Gray"
       id="linearGradient3170"
       gradientUnits="userSpaceOnUse"
       gradientTransform="matrix(3.7795276,0,0,3.7795276,273.74182,-610.15862)"
       x1="260.17096"
       y1="429.78711"
       x2="306.24509"
       y2="430.62286" />
    <linearGradient
       inkscape:collect="always"
       xlink:href="#Gray"
       id="linearGradient3172"
       gradientUnits="userSpaceOnUse"
       gradientTransform="matrix(3.7795276,0,0,3.7795276,273.74182,-610.15862)"
       x1="235.46698"
       y1="427.36334"
       x2="262.32758"
       y2="427.63062" />
    <linearGradient
       inkscape:collect="always"
       xlink:href="#Gray"
       id="linearGradient3174"
       gradientUnits="userSpaceOnUse"
       gradientTransform="matrix(3.7795276,0,0,3.7795276,-496.15076,-678.20353)"
       x1="220.83397"
       y1="435.84915"
       x2="227.56879"
       y2="435.77756" />
    <linearGradient
       inkscape:collect="always"
       xlink:href="#Red"
       id="linearGradient3176"
       gradientUnits="userSpaceOnUse"
       gradientTransform="matrix(3.7795276,0,0,3.7795276,-496.15076,-678.20353)"
       x1="233.49796"
       y1="451.32822"
       x2="263.05374"
       y2="451.82721" />
    <linearGradient
       inkscape:collect="always"
       xlink:href="#Gray"
       id="linearGradient3178"
       gradientUnits="userSpaceOnUse"
       gradientTransform="matrix(3.7795276,0,0,3.7795276,-496.15076,-678.20353)"
       x1="184.8194"
       y1="405.04636"
       x2="221.83623"
       y2="404.77908" />
    <linearGradient
       inkscape:collect="always"
       xlink:href="#Gray"
       id="linearGradient3264"
       gradientUnits="userSpaceOnUse"
       gradientTransform="matrix(3.7795276,0,0,3.7795276,273.74182,-610.15861)"
       x1="-11.569335"
       y1="370.37411"
       x2="340.80695"
       y2="369.242" />
    <linearGradient
       inkscape:collect="always"
       xlink:href="#Gray"
       id="linearGradient3301"
       gradientUnits="userSpaceOnUse"
       gradientTransform="matrix(3.7795276,0,0,3.7795276,273.74182,-610.15861)"
       x1="131.30165"
       y1="241.23601"
       x2="181.17198"
       y2="242.7858" />
    <linearGradient
       inkscape:collect="always"
       xlink:href="#Gray"
       id="linearGradient3303"
       gradientUnits="userSpaceOnUse"
       gradientTransform="matrix(3.7795277,0,0,3.7795277,-496.15077,-678.20354)"
       x1="175.6241"
       y1="243.67433"
       x2="235.2451"
       y2="239.92685" />
    <linearGradient
       inkscape:collect="always"
       xlink:href="#Gray"
       id="linearGradient3305"
       gradientUnits="userSpaceOnUse"
       gradientTransform="matrix(3.7795276,0,0,3.7795276,273.74182,-610.15861)"
       x1="188.18706"
       y1="214.96666"
       x2="265.86118"
       y2="215.91161" />
    <linearGradient
       inkscape:collect="always"
       xlink:href="#Gray"
       id="linearGradient3307"
       gradientUnits="userSpaceOnUse"
       gradientTransform="matrix(3.7795276,0,0,3.7795276,273.74182,-610.15861)"
       x1="204.34555"
       y1="206.74568"
       x2="275.94012"
       y2="207.53078" />
    <linearGradient
       inkscape:collect="always"
       xlink:href="#Gray"
       id="linearGradient3309"
       gradientUnits="userSpaceOnUse"
       gradientTransform="matrix(3.7795276,0,0,3.7795276,273.74182,-610.15861)"
       x1="163.83379"
       y1="256.45303"
       x2="215.59033"
       y2="254.55966" />
    <linearGradient
       inkscape:collect="always"
       xlink:href="#Gray"
       id="linearGradient3311"
       gradientUnits="userSpaceOnUse"
       gradientTransform="matrix(3.7795276,0,0,3.7795276,-496.15076,-678.20352)"
       x1="218.63344"
       y1="322.65677"
       x2="275.55072"
       y2="324.26041" />
    <linearGradient
       inkscape:collect="always"
       xlink:href="#Gray"
       id="linearGradient3313"
       gradientUnits="userSpaceOnUse"
       gradientTransform="matrix(3.7795276,0,0,3.7795276,273.74182,-610.15861)"
       x1="254.14391"
       y1="291.88202"
       x2="304.79272"
       y2="291.79031" />
    <linearGradient
       inkscape:collect="always"
       xlink:href="#Gray"
       id="linearGradient3315"
       gradientUnits="userSpaceOnUse"
       gradientTransform="matrix(3.7795276,0,0,3.7795276,-496.15076,-678.20352)"
       x1="159.47234"
       y1="295.69879"
       x2="191.39986"
       y2="295.67291" />
    <linearGradient
       inkscape:collect="always"
       xlink:href="#Gray"
       id="linearGradient3653"
       gradientUnits="userSpaceOnUse"
       gradientTransform="matrix(3.7795276,0,0,3.7795276,273.74182,-610.15862)"
       x1="-11.569335"
       y1="370.37411"
       x2="340.80695"
       y2="369.242" />
    <linearGradient
       inkscape:collect="always"
       xlink:href="#Gray"
       id="linearGradient3655"
       gradientUnits="userSpaceOnUse"
       gradientTransform="matrix(3.7795276,0,0,3.7795276,273.74182,-610.15861)"
       x1="-11.569335"
       y1="370.37411"
       x2="340.80695"
       y2="369.242" />
    <linearGradient
       inkscape:collect="always"
       xlink:href="#Gray"
       id="linearGradient3657"
       gradientUnits="userSpaceOnUse"
       gradientTransform="matrix(3.7795276,0,0,3.7795276,273.74182,-610.15861)"
       x1="-11.569335"
       y1="370.37411"
       x2="340.80695"
       y2="369.242" />
    <linearGradient
       inkscape:collect="always"
       xlink:href="#Gray"
       id="linearGradient3659"
       gradientUnits="userSpaceOnUse"
       gradientTransform="matrix(3.7795276,0,0,3.7795276,273.74182,-610.15861)"
       x1="-11.569335"
       y1="370.37411"
       x2="340.80695"
       y2="369.242" />
    <linearGradient
       inkscape:collect="always"
       xlink:href="#Gray"
       id="linearGradient1178"
       gradientUnits="userSpaceOnUse"
       gradientTransform="matrix(3.7795276,0,0,3.7795276,-496.15076,-678.20353)"
       x1="223.07445"
       y1="452.66455"
       x2="254.03339"
       y2="452.82947" />
    <linearGradient
       inkscape:collect="always"
       xlink:href="#Gray"
       id="linearGradient1590"
       gradientUnits="userSpaceOnUse"
       gradientTransform="matrix(3.7795276,0,0,3.7795276,-496.15075,-678.20353)"
       x1="283.76004"
       y1="517.35248"
       x2="286.09787"
       y2="517.23157" />
    <linearGradient
       inkscape:collect="always"
       xlink:href="#Gray"
       id="linearGradient1811"
       gradientUnits="userSpaceOnUse"
       gradientTransform="matrix(3.7795276,0,0,3.7795276,-496.15075,-678.20353)"
       x1="277.20239"
       y1="521.47955"
       x2="319.36414"
       y2="522.14771" />
    <pattern
       id="EMFhbasepattern"
       patternUnits="userSpaceOnUse"
       width="6"
       height="6"
       x="0"
       y="0" />
    <linearGradient
       inkscape:collect="always"
       xlink:href="#Gray"
       id="linearGradient3883"
       gradientUnits="userSpaceOnUse"
       gradientTransform="matrix(3.7795276,0,0,3.7795276,-496.15075,-678.20352)"
       x1="216.02312"
       y1="408.98856"
       x2="228.2507"
       y2="409.18903" />
    <linearGradient
       inkscape:collect="always"
       xlink:href="#Gray"
       id="linearGradient3963"
       gradientUnits="userSpaceOnUse"
       gradientTransform="matrix(3.7795276,0,0,3.7795276,-496.15076,-678.20353)"
       x1="219.4308"
       y1="408.52084"
       x2="238.54057"
       y2="408.72131" />
    <linearGradient
       inkscape:collect="always"
       xlink:href="#Gray"
       id="linearGradient3965"
       gradientUnits="userSpaceOnUse"
       gradientTransform="matrix(3.7795276,0,0,3.7795276,-496.15076,-678.20353)"
       x1="201.15067"
       y1="441.4277"
       x2="224.79655"
       y2="442.17883" />
    <linearGradient
       inkscape:collect="always"
       xlink:href="#Gray"
       id="linearGradient4779"
       gradientUnits="userSpaceOnUse"
       gradientTransform="matrix(3.7795276,0,0,3.7795276,-496.15075,-678.20353)"
       x1="263.33826"
       y1="470.11282"
       x2="323.85062"
       y2="472.13821" />
    <linearGradient
       inkscape:collect="always"
       xlink:href="#Gray"
       id="linearGradient5452"
       gradientUnits="userSpaceOnUse"
       gradientTransform="matrix(3.7795276,0,0,3.7795276,-496.15076,-678.20352)"
       x1="185.74951"
       y1="275.31525"
       x2="267.38254"
       y2="273.51224" />
    <linearGradient
       inkscape:collect="always"
       xlink:href="#Gray"
       id="linearGradient5454"
       gradientUnits="userSpaceOnUse"
       gradientTransform="matrix(3.7795276,0,0,3.7795276,-496.15076,-678.20352)"
       x1="183.08438"
       y1="334.50165"
       x2="243.56058"
       y2="335.73837" />
    <linearGradient
       inkscape:collect="always"
       xlink:href="#Gray"
       id="linearGradient6375"
       gradientUnits="userSpaceOnUse"
       gradientTransform="matrix(3.7795277,0,0,3.7795277,-496.15077,-678.20354)"
       x1="154.92422"
       y1="207.00494"
       x2="205.40446"
       y2="207.18634" />
  </defs>
  <sodipodi:namedview
     id="base"
     pagecolor="#ffffff"
     bordercolor="#666666"
     borderopacity="1.0"
     inkscape:pageopacity="0.0"
     inkscape:pageshadow="2"
     inkscape:zoom="1.0076756"
     inkscape:cx="387.02931"
     inkscape:cy="905.54934"
     inkscape:document-units="pt"
     inkscape:current-layer="layer4"
     showgrid="false"
     fit-margin-top="0"
     fit-margin-left="0"
     fit-margin-right="0"
     fit-margin-bottom="0"
     inkscape:window-width="1920"
     inkscape:window-height="991"
     inkscape:window-x="-9"
     inkscape:window-y="-9"
     inkscape:window-maximized="1"
     inkscape:pagecheckerboard="0"
     inkscape:snap-global="true"
     inkscape:snap-grids="false"
     inkscape:snap-to-guides="true" />
  <metadata
     id="metadata5">
    <rdf:RDF>
      <cc:Work
         rdf:about="">
        <dc:format>image/svg+xml</dc:format>
        <dc:type
           rdf:resource="http://purl.org/dc/dcmitype/StillImage" />
      </cc:Work>
    </rdf:RDF>
  </metadata>
  <g
     inkscape:groupmode="layer"
     id="layer4"
     inkscape:label="MAIN"
     transform="translate(-98.147362,-179.78316)"
     style="display:inline;opacity:1">
    <path
       style="display:inline;fill:url(#linearGradient3035);fill-opacity:1.0;stroke:none;stroke-width:4.10339;stroke-linejoin:round;stroke-miterlimit:3.864"
       d="m 1237.9336,1289.4258 4.6602,-4.2442 6.2226,-4.2441 h 5.5215 l 4.4297,4.1328 1.166,-2.8047 -3.3008,-19.1621 -0.7305,-13.7969 24.5977,7.9649 h 9.6035 l 1.0039,-4.666 h 6.2891 l 3.3437,4.0156 5.8321,0.2891 -0.6211,-9.3829 3.375,-6.4082 2.25,-14.8144 -8.2735,-7.6113 -0.3261,-21.1348 -0.1758,0.088 -7.043,6.3125 -8.039,-19.5703 -6.3633,-8.7032 -2.5469,-9.8613 -3.8379,0.3164 -6.8281,-11.6113 -9.5313,-7.625 -15.5019,7.5957 -0.6406,15.4219 3.6152,11.5879 -11.25,-0.7305 -15.9219,6.4824 -20.5586,-6.5781 -3.3887,30.6875 -0.5449,3.3633 5.1074,14.2129 3.1582,12.8418 4.795,7.1152 -0.1993,5.8691 3.2286,7.5996 6.7714,3.5899 4.0098,0.2012 3.8106,7.5293 3.6132,3.3476 2.9668,7.1445 z"
       id="path3025"
       transform="matrix(0.26458333,0,0,0.26458333,-105.64835,169.52869)"
       inkscape:connector-curvature="0">
      <title
         id="title3747"
         style="fill-opacity:1.0">Nord-Odal</title>
    </path>
    <path
       style="display:inline;fill:url(#linearGradient3031);fill-opacity:1;stroke:none;stroke-width:4.10339;stroke-linejoin:round;stroke-miterlimit:3.864"
       d="m 1305.1777,1407.332 0.1993,-0.098 7.123,-3.9571 15.0801,-0.6503 3.2558,-6.2149 -4.8339,-6.7617 -3.1231,-18.0488 5.4258,-2.7168 0.3105,-13.3086 -3.0937,-0.9297 -4.9688,-9.9297 3.211,-7.5 4.4218,-3.4766 -3.6757,-13.0293 8.7851,-6.082 v -9.834 l -2.9531,-10.5039 -2.9375,-5.8828 -17.4727,-24.5977 -2.8867,-0.4707 -0.045,-0.01 -0.045,-0.6504 -0.5684,-4.2734 -6.3769,-0.3184 -3.3145,-3.9863 h -4.3769 l -0.9981,4.666 h -11.0566 l -22.7442,-7.3593 0.6055,11.5293 3.3652,19.5039 -2.1699,5.1972 -5.5723,-5.2051 h -4.4746 l -5.75,3.92 -4.4277,4.0429 2.3848,1.9981 2.8261,1.2422 7.0352,5.6621 -1.0508,6.2832 -2.7637,6.9726 -0.5976,3.8086 0.9902,6.2793 -0.7871,9.2422 -2.0801,7.3184 -2.08,2.2519 -1.1094,3.086 1.6035,1.7617 3.4648,-0.1192 1.7696,2.1485 0.8008,4.541 7.625,9.0449 1.5742,4.6348 4.8047,5.2383 11.8359,7.1211 4.5391,4.2089 4.0097,1.6602 0.9864,1.0254 5.6523,0.623 1.1816,2.3516 2.5684,0.2012 1.3398,6.4101 2.4727,3.0586 -0.9902,3.1114 -0.1895,6.7597 0.7871,1.6485 6.1817,-4.0039 z"
       id="path3023"
       transform="matrix(0.26458333,0,0,0.26458333,-105.64835,169.52869)"
       inkscape:connector-curvature="0">
      <title
         id="title3749">Sør-Odal</title>
    </path>
    <path
       style="display:inline;fill:url(#linearGradient3027);fill-opacity:1;stroke:none;stroke-width:4.10339;stroke-linejoin:round;stroke-miterlimit:3.864"
       d="m 1435.4297,1448.2695 -8.4453,-16.3496 -1.3203,-9.5976 -3.6836,-4.6875 -0.3243,-5.1368 -4.5175,-2.3105 -5.3887,-3.7871 -3.3887,-3.2559 -1.9336,-3.7949 0.6192,-4.2891 0.5176,-0.1093 c 0,0 3.2532,-0.776 7.6093,-2.4375 l -3.9121,-19.5313 -1.5351,-2.0742 -2.9668,-0.8867 -24.3028,-0.5684 v 6.0391 l -7.9121,3.7871 -10.6601,15.1914 -4.916,0.2891 -17.3028,0.6699 -4.4746,3.7812 -5.123,-1.9199 -3.5567,6.7988 -15.5918,0.6719 -6.8496,3.8008 -0.3223,0.1582 0.3653,10.9219 -0.5899,3.3789 4.209,3.8008 -1.6504,11.2461 -3.1484,0.2851 -1.9609,3.0117 -2.0196,7.8789 -1.0176,8.2286 5.1954,8.3554 1.5781,4.211 -4.4063,7.1132 1.3789,4.2207 0.6582,3.9942 -1.6464,1.2461 1.4492,1.7285 0.9863,2.2715 2.5625,-0.2071 -1.9726,4.42 1.7753,1.8633 -0.9804,3.3925 3.9824,3.9805 0.027,6.7187 0.9805,2.7598 -1.3789,1.0293 0.7871,1.8711 3.6406,-0.7695 0.5782,-1.8946 6.9785,-6.6621 1.1543,-4.3867 -0.1153,-4.582 6.0332,0.076 13.0372,-13.6133 6.5507,1.4941 4.7207,3.5098 9.375,3.3965 11.4043,-1.6465 9.4688,-3.1445 9.4707,2.2617 6.3027,-6.3457 6.8516,-11.6036 10.084,-9.0078 9.3281,-4.8437 2.1269,-3.2813 5.6446,-3.5742 z"
       id="path3021"
       transform="matrix(0.26458333,0,0,0.26458333,-105.64835,169.52869)"
       inkscape:connector-curvature="0">
      <title
         id="title3755">Eidskog</title>
    </path>
    <path
       id="path3019"
       style="display:inline;fill:url(#linearGradient1590);fill-opacity:1.0;stroke:none;stroke-width:4.10339;stroke-linejoin:round;stroke-miterlimit:3.864"
       d="m 583.70117,1272.7676 -6.23633,0.4941 -1.13672,3.8828 0.16211,2.9746 3.77149,1.1661 4.03125,-0.9375 0.87109,-3.6602 z"
       transform="matrix(0.26458333,0,0,0.26458333,98.052393,187.53224)">
      <title
         id="title3753"
         style="fill-opacity:1.0">Kongsvinger</title>
    </path>
    <path
       id="path1594"
       style="display:inline;fill:url(#linearGradient1811);fill-opacity:1.0;stroke:none;stroke-width:4.10339;stroke-linejoin:round;stroke-miterlimit:3.864"
       d="m 564.90039,1244.4805 v 2.8925 l -8.54883,5.9141 3.66211,12.9688 -4.91601,3.8613 -2.78321,6.5039 4.36328,8.7324 3.57227,1.0703 -0.35352,15.3535 -5.24218,2.6211 2.87109,16.6172 4.76953,6.6719 4.70899,1.7656 4.19336,-3.5508 17.80468,-0.6875 4.17774,-0.2421 10.46875,-14.92 7.41797,-3.5507 v -6.629 l 26.03711,0.6133 3.63867,1.084 2.02929,2.7461 4.23829,21.127 -0.57618,0.2304 c -2.3681,0.9473 -4.2532,1.5615 -5.5957,1.9492 -1.3425,0.3876 -2.14234,0.5485 -2.33984,0.5899 l -0.40625,2.834 1.60156,3.1523 3.11523,2.9961 5.21289,3.6621 5.18946,2.6504 0.33789,5.5215 3.65429,4.6426 1.34376,9.7441 7.8457,15.1914 1.33984,-2.5332 6.32227,-12.0215 7.54883,-7.5937 9.70507,-14.3106 6.42188,-16.0781 4.65625,-11.4082 3.39062,-11.1543 1.44727,-14.9121 3.83398,-14.7832 -2.15625,-9.4824 -0.42773,-2.086 -9.59961,1.8633 -12.98438,1.3887 -16.10742,4.1777 -3.49218,14.6172 -10.2168,-3.8984 -7.61719,-0.502 -6.21484,-3.2851 -2.29688,4.5918 -10.86523,-0.959 -1.77149,-5.4414 -3.86132,2.2656 -17.65039,-6.9238 -1.50586,-5.211 -5.13086,2.6934 -1.89649,-10.5488 -6.99023,-7.1075 -14.50586,-0.3691 c -0.0151,4e-4 -0.0295,6e-4 -0.0371,0 -0.0378,0 -0.0672,-0.012 -0.0898,-0.016 -0.0975,-0.018 -0.15274,-0.036 -0.25781,-0.074 -0.10513,-0.039 -0.24812,-0.094 -0.45508,-0.1817 -0.20695,-0.088 -0.47709,-0.2076 -0.83593,-0.3711 -0.35886,-0.1634 -0.80592,-0.3708 -1.36328,-0.6347 -0.55737,-0.264 -1.22672,-0.5841 -2.02735,-0.9727 -0.80063,-0.3886 -1.73362,-0.8453 -2.82226,-1.3828 -0.86389,-0.4266 -1.908,-0.9484 -2.97852,-1.4824 z m 19.70313,26.8847 1.94726,5.2325 -1.15039,4.8652 -5.18945,1.2031 -4.99805,-1.543 -0.22266,-3.9707 0.16407,-0.01 -0.19922,-0.059 1.49023,-5.08 z"
       transform="matrix(0.26458333,0,0,0.26458333,98.052393,187.53224)">
      <title
         id="title1592"
         style="fill:url(#linearGradient1811);fill-opacity:1.0">Vinger</title>
    </path>
    <path
       id="path1563"
       style="display:inline;fill:url(#linearGradient3029);fill-opacity:1;stroke:none;stroke-width:4.10339;stroke-linejoin:round;stroke-miterlimit:3.864"
       d="m 659.43359,1171.1113 -12.09179,1.4766 5.19726,9.4785 1.78516,12.1133 -13.08008,3.9199 1.85352,3.4902 0.23437,2.1641 -1.57226,1.8594 -0.85547,1.2637 v 9.2187 l -10.75586,-15.9453 -4.46485,0.9531 -3.94921,-2.3691 v -5.8535 l -22.92188,-6.459 -26.95898,7.2324 -4.01563,3.6836 -8.40039,1.75 -6.10547,-2.0371 -11.30078,-1.0781 16.76367,23.6152 3.05664,6.1191 3.04883,10.8379 v 6.4434 c 1.33641,0.6678 2.5353,1.2644 3.57031,1.7754 1.08649,0.5363 2.01901,0.992 2.81641,1.3789 0.79739,0.3869 1.4613,0.7033 2.01367,0.9648 0.55237,0.2615 0.99234,0.4669 1.34375,0.627 0.3514,0.1601 0.61362,0.2768 0.80664,0.3594 0.19303,0.082 0.3163,0.1317 0.38867,0.1582 0.0416,0.016 0.0275,0.012 0.0312,0.014 l 14.97657,0.3848 7.65625,7.7871 1.64648,9.1543 4.9668,-2.6055 1.77929,6.1485 16.43946,6.4511 4.72461,-2.7812 2.01562,6.1777 9.08594,0.8047 2.49609,-4.998 7.17578,3.7871 7.5293,0.5019 8.98242,3.4258 3.32227,-13.916 16.97851,-4.4063 13.0293,-1.3945 9.53125,-1.8476 -2.59961,-12.6563 -1.77734,-9.8613 -3.87305,-10.5957 0.14844,-4.2227 -2.02149,-2.1406 -5.63281,-9.1914 -7.7207,-30.9004 -9.66992,8.6973 -5.54493,-6.9317 -7.48437,1.4238 0.36133,-8.7187 z"
       transform="matrix(0.26458333,0,0,0.26458333,98.052393,187.53224)">
      <title
         id="title1561">Brandval</title>
    </path>
    <path
       id="path3017"
       style="display:inline;fill:url(#linearGradient4779);fill-opacity:1;stroke:none;stroke-width:4.10339;stroke-linejoin:round;stroke-miterlimit:3.864"
       d="m 637.25781,1046.2461 -19.21484,5.0937 -14.75,6.9981 -4.11133,3.1445 -4.09766,2.7305 2.8125,-0.088 -2.30273,8.0684 5.38867,1.7128 -5.17383,3.9278 -4.91015,-1.3887 -3.35742,2.5313 -3.5586,-2.1993 -0.95312,4.4434 -25.99024,8.8379 -25.23828,-2.8359 0.004,-0.029 -0.51563,0.1992 h -16.625 l -15.36914,-6.584 0.26563,4.9531 6.32617,10.7637 4.16406,-0.3477 2.79102,10.8067 6.30273,8.623 7.29492,17.7676 5.61719,-5.0195 0.0957,-0.051 1.39454,-0.6953 1.0039,-0.502 v 0.2149 l 32.18555,-9.2422 v -3.8828 l 27.13672,0.9961 c -0.1653,-0.8611 -1.18556,-6.0896 -2.09766,-11.6036 -0.1346,-0.8137 -0.13199,-1.5658 -0.0254,-2.2539 0.1061,-0.6881 0.3156,-1.3134 0.5957,-1.8769 0.5602,-1.127 1.40232,-2.0046 2.25782,-2.6387 0.8555,-0.634 1.74005,-1.0624 2.41015,-1.332 0.6702,-0.2696 1.125,-0.3809 1.125,-0.3809 l 0.0391,-0.016 16.52735,-2.5762 3.89844,3.2481 6.05273,-2.8711 16.62305,0.2285 4.71679,1.2109 1.91993,3.211 -0.0156,4.2734 15.54688,-1.5195 0.33984,-4.7324 h 11.08008 l 4.25976,-3.7207 3.92578,-0.9805 2.35547,1.9121 14.57227,6.4512 -0.1582,1.5 0.16601,1.9023 7.4043,11.5078 4.97656,2.0391 5.7793,-0.2813 1.27734,-4.6211 1.2832,-2.539 7.14258,-2.4785 -0.16406,-1.4747 -1.35352,-3.7402 -0.082,0.024 -0.45507,-1.5098 -5.78907,-16.0176 -8.45312,-15.2676 -6.56055,-9.332 1.19336,-9.1113 -5.99219,6.3554 -1.95508,7.0938 -7.22851,3.6406 -6.06055,-3.2851 -9.98047,0.9882 -5.18945,3.5723 -12.76172,1.0195 -7.41992,-6.0019 -1.04688,-7.1152 -3.91406,-1.2266 1.98633,-4.0957 -7.57422,0.4121 z"
       transform="matrix(0.26458333,0,0,0.26458333,98.052393,187.53224)">
      <title
         id="title3751">Hof</title>
    </path>
    <path
       id="path4581"
       style="display:inline;fill:url(#linearGradient3033);fill-opacity:1;stroke:none;stroke-width:4.10339;stroke-linejoin:round;stroke-miterlimit:3.864"
       d="m 682.69141,1092.502 -2.85547,0.707 -4.40039,3.8535 h -10.25391 l -0.32422,4.5996 -18.45508,1.8086 0.01,-5.5137 -1.38672,-2.3261 -3.94336,-1.0176 -16.09961,-0.2149 -6.60742,3.1309 -4.10352,-3.4258 -15.76757,2.457 c 0,0 -1.56751,0.3983 -3.00391,1.4629 -0.7182,0.5322 -1.38912,1.1926 -1.82422,2.0547 -0.2175,0.4311 -0.37642,0.9116 -0.45312,1.4531 -0.077,0.5415 -0.07,1.1438 0.041,1.8145 0.9798,5.9229 2.24219,12.4902 2.24219,12.4902 l 0.17773,0.9219 -27.44531,-1.0039 v 3.4551 l -33.6543,9.6621 0.31836,21.1055 8.38477,7.7207 -2.41406,15.8496 -3.29102,6.2597 0.94336,14.1954 2.03906,0.3242 h 0.0215 l 13.05859,1.248 5.89063,1.9649 7.5957,-1.5879 3.98633,-3.6465 27.70508,-7.4414 24.41211,6.8808 v 6.1407 l 2.71679,1.6308 4.8711,-1.039 8.58593,12.7246 v -4.7891 l 1.15821,-1.707 1.21093,-1.4239 -0.14062,-1.2402 -2.57617,-4.8496 13.58984,-4.082 -1.55078,-10.5567 -6.13281,-11.1836 15.23632,-1.8593 3.7129,5.9336 -0.31055,7.2871 6.51758,-1.2403 5.12304,6.4004 10.33594,-9.3027 8.27539,33.0937 5.42383,8.8653 0.90039,0.9492 0.59766,-17.0645 3.27343,-7.2089 5.81446,-4.5332 6.57226,-8.9532 7.57032,-15.9121 2.78125,-5.8476 1.30859,-10.4141 0.33789,-40.0215 -0.43555,-3.9238 -6.33984,2.2012 -0.98828,1.9414 -1.5,5.4199 -7.03516,0.3457 -5.63867,-2.3184 -7.81055,-12.1347 -0.2539,-2.8887 -13.81641,-6.1172 z"
       transform="matrix(0.26458333,0,0,0.26458333,98.052393,187.53224)">
      <title
         id="title4579">Grue</title>
    </path>
    <path
       id="path4510"
       style="display:inline;fill:url(#linearGradient3037);fill-opacity:1;stroke:none;stroke-width:4.10339;stroke-linejoin:round;stroke-miterlimit:3.864"
       d="m 623.03906,921.83984 -2.91601,3.47657 8.87304,10.84375 -3.52148,10.21679 -8.97656,9.32227 -7.2793,0.6582 -6.73828,9.19727 7.70508,7.33789 -11.28516,1.1289 -8.23242,11.52344 -12.23047,7.27149 -6.22266,18.01169 -1.37304,7.9063 -8.72657,6.4668 3.47657,6.6347 -0.69336,5.5235 v 5.1074 l 3.38867,6.7695 -3.79492,13.4492 -16.57227,18.2637 -13.5,5.2305 22.4707,2.5195 24.9961,-8.4961 1.1875,-5.5508 4.38476,2.709 3.16016,-2.3769 4.9082,1.3808 2.59961,-1.9726 -4.17187,-1.3203 2.16406,-7.5528 -5.66211,0.1778 7.94922,-5.3008 4.19336,-3.2031 14.98437,-7.1094 20.51563,-5.4395 1.86719,5.1524 8.85156,-0.4805 -2.29688,4.7402 3.22657,1.0118 1.09961,7.4316 6.59961,5.3379 11.87695,-0.9453 5.16797,-3.5645 10.73242,-1.0625 5.81055,3.1446 6.08203,-3.0567 1.88281,-6.8437 7.48242,-7.9375 0.1211,-0.9297 -2.23438,-9.791 -7.18945,-11.7325 -13.88281,-20.0644 -5.42383,-10.46876 -12.36719,-38.75196 -3.49414,-17.58007 -7.82227,0.39453 -10.23828,-4.22266 -7.58789,-5.4707 -7.47851,-2.11914 -3.76563,-2.31055 z"
       transform="matrix(0.26458333,0,0,0.26458333,98.052393,187.53224)">
      <title
         id="title4508">Åsnes</title>
    </path>
    <path
       style="display:inline;fill:url(#linearGradient3653);fill-opacity:1;stroke:none;stroke-width:4.10339;stroke-linejoin:round;stroke-miterlimit:3.864"
       d="m 1165.4531,902.46094 -1.6621,8.3125 -1.3281,48.77929 6.9609,17.56055 8.0469,28.15432 -0.6875,12.0039 -4.2227,6.3262 -4.7246,2.5175 1.5059,17.8125 4.7187,-3.6035 4.7911,-1.0254 5.455,-1.8242 5.2618,6.666 3.3457,2.3399 5.7578,8.0019 8.6426,-2.664 12.9492,16.3652 17.207,16.2031 17.9746,7.9942 5.7715,4.8652 4.5781,-6.8652 -7.3457,-9.6778 6.3496,-9.0195 -3.582,-5.1836 -0.066,-0.096 -10.2891,-14.4824 -15.6875,-9.0059 -4.8496,-7.625 -4.332,-29.6621 -8.6817,-13.36132 -1.0039,-14.67383 -26.8847,-43.1543 -8.9766,-12.29883 z"
       id="path3160"
       transform="matrix(0.26458333,0,0,0.26458333,-105.64835,169.52869)"
       inkscape:connector-curvature="0" />
    <path
       style="display:inline;fill:url(#linearGradient3172);fill-opacity:1.0;stroke:none;stroke-width:4.10339;stroke-linejoin:round;stroke-miterlimit:3.864"
       d="m 1165.4531,902.46094 14.9922,19.67968 8.9766,12.29883 26.8847,43.1543 1.0039,14.67383 8.6817,13.36132 4.332,29.6621 4.8496,7.625 15.6875,9.0059 10.2891,14.4824 0.066,0.096 3.582,5.1836 -6.3496,9.0195 7.3457,9.6778 -4.5781,6.8652 -5.7715,-4.8652 -17.9746,-7.9942 -17.207,-16.2031 -12.9492,-16.3652 -8.6426,2.664 -5.7578,-8.0019 -3.3457,-2.3399 -5.2618,-6.666 -5.455,1.8242 -4.7911,1.0254 -4.7187,3.6035 -1.5059,-17.8125 4.7246,-2.5175 4.2227,-6.3262 0.6875,-12.0039 -8.0469,-28.15432 -6.9609,-17.56055 1.3281,-48.77929 z"
       id="path3158"
       transform="matrix(0.26458333,0,0,0.26458333,-105.64835,169.52869)"
       inkscape:connector-curvature="0">
      <title
         id="title3737"
         style="fill-opacity:1.0">Løten</title>
    </path>
    <path
       style="display:inline;fill:url(#linearGradient2992);fill-opacity:1;stroke:none;stroke-width:4.10339;stroke-linejoin:round;stroke-miterlimit:3.864"
       d="m 1288.1094,830.29492 -5.0782,21.89453 -26.6718,14.15821 7.4492,15.63476 -11.9141,-7.30078 -31.0781,40.33594 -16.6465,4.37695 -1.6523,-3.31445 -20.2422,6.02344 8.3926,11.50195 27.1152,43.51562 0.9961,14.65235 8.6504,13.31056 4.334,29.6738 4.4804,7.0352 15.6504,8.9922 10.1211,14.246 6.1621,-4.1113 24.5899,1.9629 1.3066,-6.8496 8.4004,-1.3437 1.4395,-4.3184 -2.8125,-7.3887 26.7675,-13.0449 h 5.8829 l 17.7617,-16.166 -11.916,-8.2754 10.2539,-11.95704 -1.8965,-5.05664 1.0332,-31.75781 9.7441,2.52539 9.8321,-2.03125 11.0585,8.71094 -2.5312,-9.11719 -0.666,-12.07617 5.3301,-1.32813 3.4765,-14.53515 -5.5879,-6.90235 -0.3379,-5.7207 -3.5214,-5.98633 6.4511,-7.16797 7.0801,-4.00195 -5.0937,-7.78711 -12.0704,-4.44336 -6.1484,4.30274 -2.7754,7.98828 -8.8301,-0.73828 -4.2578,-3.79493 -10.7851,11.87696 -14.6094,-17.39844 -18.3359,-37.66211 z"
       id="path3156"
       transform="matrix(0.26458333,0,0,0.26458333,-105.64835,169.52869)"
       inkscape:connector-curvature="0" />
    <path
       style="display:inline;fill:url(#linearGradient3168);fill-opacity:1;stroke:none;stroke-width:4.10339;stroke-linejoin:round;stroke-miterlimit:3.864"
       d="m 1288.1094,830.29492 18.3008,21.14258 18.3359,37.66211 14.6094,17.39844 10.7851,-11.87696 4.2578,3.79493 8.8301,0.73828 2.7754,-7.98828 6.1484,-4.30274 12.0704,4.44336 5.0937,7.78711 -7.0801,4.00195 -6.4511,7.16797 3.5214,5.98633 0.3379,5.7207 5.5879,6.90235 -3.4765,14.53515 -5.3301,1.32813 0.666,12.07617 2.5312,9.11719 -11.0585,-8.71094 -9.8321,2.03125 -9.7441,-2.52539 -1.0332,31.75781 1.8965,5.05664 -10.2539,11.95704 11.916,8.2754 -17.7617,16.166 h -5.8829 l -26.7675,13.0449 2.8125,7.3887 -1.4395,4.3184 -8.4004,1.3437 -1.3066,6.8496 -24.5899,-1.9629 -6.1621,4.1113 -10.1211,-14.246 -15.6504,-8.9922 -4.4804,-7.0352 -4.334,-29.6738 -8.6504,-13.31056 -0.9961,-14.65235 -27.1152,-43.51562 -8.3926,-11.50195 20.2422,-6.02344 1.6523,3.31445 16.6465,-4.37695 31.0781,-40.33594 11.9141,7.30078 -7.4492,-15.63476 26.6718,-14.15821 z"
       id="path3154"
       transform="matrix(0.26458333,0,0,0.26458333,-105.64835,169.52869)"
       inkscape:connector-curvature="0">
      <title
         id="title3739">Elverum</title>
    </path>
    <path
       id="path3152"
       style="display:inline;fill:url(#linearGradient3883);fill-opacity:1.0;stroke:none;stroke-width:4.10339;stroke-linejoin:round;stroke-miterlimit:3.864"
       d="m 327.84961,736.58789 0.60937,35.23633 8.64258,55.1875 8.10547,41.79687 -3.8457,17.0293 -6.69531,11.38281 0.7832,6.66602 -6.90234,5.10156 -3.625,10.17969 -5.36524,7.73633 -0.0606,6.46679 3.02735,6.9668 11.85156,11.71875 0.80859,1.28125 3.00391,5.75 3.47656,-1.85937 3.3086,1.92578 2.98828,-4.50977 9.33203,2.23633 1.4082,-4.66602 4.17188,-3.63086 -3.59571,-5.45117 -0.84961,-1.30078 4.06836,-4.58008 4.48829,-12.51172 -7.89844,-12.17187 -2.34766,-25.22461 v -14.80859 l 7.93555,-27.13477 -22.57422,-40.49805 -11.33008,-63.32812 z"
       transform="matrix(0.26458333,0,0,0.26458333,98.052393,187.53224)">
      <title
         id="title3735"
         style="fill-opacity:1.0">Furnes</title>
    </path>
    <path
       id="path3860"
       style="display:inline;fill:url(#linearGradient3174);fill-opacity:1.0;stroke:none;stroke-width:4.10339;stroke-linejoin:round;stroke-miterlimit:3.864"
       d="m 363.27539,970.51172 0.78516,-5.76172 -5.67578,-0.16211 -6.92383,-3.89844 0.92187,-3.60937 -3.82422,-0.92188 -3.17382,4.77539 -3.75,-2.17773 -2.83008,1.51172 7.4082,14.18164 z"
       transform="matrix(0.26458333,0,0,0.26458333,98.052393,187.53224)">
      <title
         id="title3858"
         style="fill-opacity:1.0">Hamar</title>
    </path>
    <path
       id="path3852"
       style="display:inline;fill:url(#linearGradient3963);fill-opacity:1.0;stroke:none;stroke-width:4.10339;stroke-linejoin:round;stroke-miterlimit:3.864"
       d="m 332.96094,745.30859 10.57226,59.07813 22.75782,40.83594 -8.05469,27.52734 v 14.52734 l 2.31055,24.78125 8.10546,12.49024 -4.84179,13.48633 -3.61719,4.06836 4.43555,6.7246 -4.75977,4.14063 -1.66992,5.50586 -4.51758,-1.08399 -0.67773,2.63477 5.75,3.24023 6.82812,0.19336 -0.91601,6.73243 7.23437,-1.66993 10.32813,4.82032 4.28125,3.625 7.86132,2.20117 3.66211,-2.25195 -1.66797,-19.70313 5.26954,-2.8125 3.77929,-5.66797 0.65039,-11.33984 -7.95703,-27.83594 -7.04297,-17.77734 1.34375,-49.22071 1.9336,-9.69336 -27.79297,-30.44335 z"
       transform="matrix(0.26458333,0,0,0.26458333,98.052393,187.53224)">
      <title
         id="title3850"
         style="fill-opacity:1.0">Vang</title>
    </path>
    <path
       id="path3150"
       style="display:inline;fill:url(#linearGradient3965);fill-opacity:1.0;stroke:none;stroke-width:4.10339;stroke-linejoin:round;stroke-miterlimit:3.864"
       d="m 333.19141,952.75781 -11.47266,-11.34765 -10.24609,1.09179 -3.29297,5.52149 -3.95508,0.62695 -3.78711,5.45508 -9.375,4.04492 -14.66211,1.47656 -5.26172,-6.53906 -5.38672,-1.45508 10.40625,21.01563 10.74024,7.55859 16.55664,4.76953 13.59765,13.35352 33.44727,24.89262 3.22656,-9.9961 -2.31054,-25.37113 -6.25977,-12.19531 z"
       transform="matrix(0.26458333,0,0,0.26458333,98.052393,187.53224)">
      <title
         id="title3733"
         style="fill-opacity:1.0">Nes</title>
    </path>
    <path
       id="path2468"
       style="display:inline;fill:url(#linearGradient3178);fill-opacity:1;stroke:none;stroke-width:4.10339;stroke-linejoin:round;stroke-miterlimit:3.864"
       d="m 309.65625,705.51953 -13.38281,13.22852 -25.03125,14.1289 -3.47852,18.11524 -15.52344,17.03125 -5.24023,17.72265 -14.20312,17.6875 -0.53126,7.21289 h -6.40039 l -9.66992,8.92383 -9.47851,2.5625 -3.67578,0.50196 6.5625,21.03711 15.98046,14.52734 22.3086,17.06836 8.85156,13.63281 6.93164,21.41602 9.24219,14.50586 -9.47266,22.15234 1.51758,3.06641 6.93555,1.87304 5.09375,6.31836 13.73047,-1.38672 8.83593,-3.81054 3.89649,-5.60938 3.89844,-0.62109 3.31445,-5.5586 10.32031,-1.09179 -2.82812,-6.51172 0.0664,-7.16602 5.5,-7.92187 3.69922,-10.40039 6.60547,-4.88086 -0.73828,-6.33985 6.81445,-11.58984 3.73438,-16.55664 -8.05274,-41.54688 -8.66015,-55.29687 -0.65625,-37.70508 z"
       transform="matrix(0.26458333,0,0,0.26458333,98.052393,187.53224)">
      <title
         id="title2466">Ringsaker</title>
    </path>
    <path
       style="display:inline;fill:url(#linearGradient3166);fill-opacity:1;stroke:none;stroke-width:4.10339;stroke-linejoin:round;stroke-miterlimit:3.864"
       d="m 1297.4922,675.76172 -34.5547,17.35547 -39.9219,15.85742 -6.289,-1.50586 -40.793,11.96484 22.9726,63.91993 -7.1093,2.9746 -7.1074,6.79102 5.8906,11.51758 -0.8281,16.56445 -3.1075,-0.39258 -5.2929,5.29297 h -3.75 l -5.668,-1.66015 h -2.3477 l -3.2714,1.95703 -13.3457,2.56836 -6.4083,-0.77539 -2.0585,-4.12696 0.789,-8.38476 -0.9512,-15.90821 h -36.7773 l -14.4531,-6.02343 8.916,15.22851 0.068,0.11719 35.5566,60.48047 26.9453,29.50586 0.037,-0.16992 0.9668,1.26953 15.7305,20.63867 21.9629,-6.53125 1.6738,3.34961 14.9707,-3.94141 31.5879,-40.99804 8.7539,5.36523 -5.8906,-12.36328 27.3359,-14.51367 5.5879,-24.10157 0.5762,0.66407 20.6699,-10.65235 8.3105,-10.30468 15.6348,-10.09766 z"
       id="path3148"
       transform="matrix(0.26458333,0,0,0.26458333,-105.64835,169.52869)"
       inkscape:connector-curvature="0">
      <title
         id="title3731">Åmot</title>
    </path>
    <path
       id="path3146"
       style="display:inline;fill:url(#linearGradient3176);fill-opacity:1.0;stroke:none;stroke-width:4.10339;stroke-linejoin:round;stroke-miterlimit:3.864"
       d="m 389.84375,979.46094 -3.83594,3.52148 -0.33203,5.63281 6.66602,13.68557 -1.84571,4.4531 4.39844,-0.3262 0.57617,6.918 3.13868,4.7012 6.39843,12.0781 -1.09179,3.1211 5.18945,1.0332 -0.9082,11.6133 7.07226,4.2441 1.94922,18.041 18.40234,3.0645 -1.16601,5.418 13.66406,22.0722 14.54883,4.8496 2.5957,7.6758 8.84766,0.5684 -3.04883,-9.75 0.69336,-16.5723 17.16211,-8.4082 9.06641,7.2481 -0.24415,-4.6133 -0.7539,-4.1192 -4.48828,-28.125 -1.72461,-16.7949 -6.02539,-5.0703 -18.01953,-8.0098 -17.46485,-16.4609 -12.3789,-15.64259 -8.69727,2.67969 -6.23633,-8.66602 -3.31445,-2.32617 -4.74805,-6.00781 -4.53906,1.51367 -4.53906,0.97461 -5.56641,4.25195 -4.64453,2.86329 z"
       transform="matrix(0.26458333,0,0,0.26458333,98.052393,187.53224)">
      <title
         id="title3745"
         style="fill-opacity:1.0">Romedal</title>
    </path>
    <path
       id="path1132"
       style="display:inline;fill:url(#linearGradient1178);fill-opacity:1;stroke:none;stroke-width:4.10339;stroke-linejoin:round;stroke-miterlimit:3.864"
       d="m 371.73828,970.10156 -24.81055,5.72852 5.95704,11.59765 2.36328,25.96877 -3.38086,10.4824 -0.0957,0.2891 7.17383,5.3281 4.13477,5.4863 6.37109,10.8067 2.39844,7.2265 3.07031,4.6797 -0.0332,1.3047 13.3789,20.1777 0.9004,13.8614 -1.94922,16.0703 7.05078,2.9902 3.69531,4.0625 5.89453,3.9668 5.25977,10.0781 9.66992,2.8125 4.66211,10.9727 0.14062,-0.8652 3.58594,-32.4747 21.78516,6.9688 14.98828,-6.0957 -2.32813,-6.8887 -14.38086,-4.7988 -14.19531,-22.9277 0.97461,-4.584 -18.01953,-3.0039 -1.98633,-18.3887 -7.21094,-4.3262 0.87891,-11.25 -5.5293,-1.1074 1.41016,-4.0156 -6.09766,-11.5 -3.29296,-4.9395 -0.49415,-5.9414 -5.24218,0.3906 2.44336,-5.8984 -6.55469,-13.46484 0.38476,-6.50977 3.6211,-3.33398 -2.53711,-0.71094 -4.38477,-3.71289 z"
       transform="matrix(0.26458333,0,0,0.26458333,98.052393,187.53224)">
      <title
         id="title1130">Stange</title>
    </path>
    <path
       style="display:inline;fill:url(#linearGradient3170);fill-opacity:1;stroke:none;stroke-width:4.10339;stroke-linejoin:round;stroke-miterlimit:3.864"
       d="m 1404.1973,922.85352 -5.1446,-8.48633 -8.9257,-14.00977 -6.9375,3.92578 -5.5508,6.16407 3.1445,5.35156 0.332,5.60351 5.7422,7.10157 -3.8535,16.13671 -5.0117,1.24805 0.5898,10.68164 3.7129,13.375 -14.1054,-11.11719 -9.4942,1.96485 -8.2676,-2.14063 -0.9589,29.57813 2.1035,5.61133 -9.752,11.3672 12.0918,8.4004 -19.5762,17.8281 h -6.1191 l -25.2246,12.291 2.5176,6.6133 -1.8985,5.6836 -8.2597,1.3223 -1.3653,7.1445 -25.4082,-2.0371 -5.6992,3.8027 3.75,5.4336 -6.3184,8.9824 7.3223,9.6563 -5.4805,8.2148 1.7227,16.7871 4.4805,28.0664 0.6875,3.7637 15.8183,6.7774 h 16.041 l 16.0411,-6.2149 16.0918,-17.7402 3.5449,-12.5567 -3.2852,-6.5625 v -5.5586 l 0.6426,-5.1445 -3.8535,-7.3594 9.2715,-6.873 1.291,-7.4258 6.4453,-18.6543 12.4375,-7.3887 8.4375,-11.8183 8.7031,-0.8711 -6.289,-5.9942 7.9277,-10.8066 7.3906,-0.6719 8.3555,-8.6738 3.1445,-9.1172 -9.1308,-11.1621 4.916,-5.85351 3.0468,3.9414 3.3594,2.06055 7.5215,2.13281 7.6621,5.52925 9.7676,4.0235 7.2656,-0.3672 -1.1269,-5.67188 -0.877,-24.61132 -5.8535,-9.10547 -13.3203,-33.78516 -6.709,-8.59375 z"
       id="path3144"
       transform="matrix(0.26458333,0,0,0.26458333,-105.64835,169.52869)"
       inkscape:connector-curvature="0">
      <title
         id="title3741">Våler</title>
    </path>
    <path
       style="display:inline;fill:url(#linearGradient3164);fill-opacity:1;stroke:none;stroke-width:4.10339;stroke-linejoin:round;stroke-miterlimit:3.864"
       d="m 1420.6816,606.40234 -15.7089,8.74805 -28.3243,5.6543 -11.7656,4.87109 -16.6543,1.04102 -20.8164,-49.20703 -6.459,13.36914 -0.5019,9.98047 -2.6739,6.32617 2.3262,5.42578 -3.373,3.37305 0.582,9.97265 0.8047,7.46289 -0.332,4.13477 -4.17,6.74609 -14.8535,30.45899 35.4922,122.58984 -16.3652,10.57031 -8.3555,10.36524 -20.625,10.63672 18.7637,21.68164 18.3379,37.67578 13.3906,15.9375 10.6289,-11.70703 4.998,4.45117 7.168,0.59765 2.5527,-7.34375 7.1915,-5.03515 13.2656,4.89453 5.8008,8.87305 9.3242,14.62304 5.2793,8.71485 40.5039,-16.27344 13.3047,-1.9961 7.5683,-2.23632 21.9219,2.4082 14.2383,-1.5918 9.0742,-2.10351 6.5859,-14.16211 2.8106,-17.03711 -1.4258,-11.28125 20.9668,-26.15625 20.4063,-85.38086 -72.2247,-107.06055 -36.5371,4.93555 z"
       id="path3142"
       transform="matrix(0.26458333,0,0,0.26458333,-105.64835,169.52869)"
       inkscape:connector-curvature="0">
      <title
         id="title3729">Trysil</title>
    </path>
    <path
       style="display:inline;fill:url(#linearGradient3655);fill-opacity:1;stroke:none;stroke-width:4.10339;stroke-linejoin:round;stroke-miterlimit:3.864"
       d="m 963.21875,281.52539 -11.02148,0.0664 0.89453,3.26953 -0.79102,4.93945 -2.8418,1.97852 0.6504,5.86718 2.38281,5.12305 0.59961,2.13477 5.39453,2.55273 2.09765,3.89063 -0.0156,0.21484 c 0,0 -0.0617,0.90659 -0.0957,1.85938 -0.0168,0.47637 -0.027,0.96693 -0.0156,1.34374 0.008,0.18838 0.0161,0.34762 0.0312,0.45118 0.0113,0.10393 0.0737,0.17543 -0.0234,0.0137 l 0.32422,0.53906 1.22656,4.52539 -27.7207,47.37696 -12.76172,11.01367 -4.81445,7.57422 -14.56445,27.62304 -2.52344,3.30664 -3.82422,18.61719 8.74805,4.99805 -1.51367,7.30859 2.39257,1.69727 5.07813,-2.70899 8.5625,8.55469 7.87695,1.37305 2.65039,8.26172 8.6211,0.29492 6.03906,-14.01953 5.0039,-6.18555 13.01563,-4.43555 34.98242,-0.6875 7.58789,24.75196 37.4199,-15.6211 7.1015,-7.77929 14.6075,-0.34766 4.1269,3.53711 2.7305,-6.06836 9.3906,-2.73828 -1.0039,10.3789 9.1602,-2.28125 0.8652,-2.00781 -0.082,-3.33789 -1.8164,-3.76367 -7.9493,-21.87305 -17.0742,-16.70508 -2.3105,-8.74023 -13,-19.66602 -8.7774,-33.07812 6.6797,-12.01758 -2.5019,-11.56641 -5.0938,-0.89453 -12.209,0.32617 -6.0976,1.01758 -17.5762,-4.05859 -3.87495,-2.11133 -1.98633,-2.31055 -14.07031,-6.36328 -4.14844,-7.27148 -0.56836,-1.58789 -0.22852,-0.19922 -3.77929,6.74805 z"
       id="path3297"
       transform="matrix(0.26458333,0,0,0.26458333,-105.64835,169.52869)"
       inkscape:connector-curvature="0" />
    <path
       style="display:inline;fill:url(#linearGradient3309);fill-opacity:1;stroke:none;stroke-width:4.10339;stroke-linejoin:round;stroke-miterlimit:3.864"
       d="m 963.21875,281.52539 9.56641,13.10352 3.77929,-6.74805 0.22852,0.19922 0.56836,1.58789 4.14844,7.27148 14.07031,6.36328 1.98633,2.31055 3.87499,2.11133 17.5762,4.05859 6.0976,-1.01758 12.209,-0.32617 5.0938,0.89453 2.5019,11.56641 -6.6797,12.01758 8.7774,33.07812 13,19.66602 2.3105,8.74023 17.0742,16.70508 7.9493,21.87305 1.8164,3.76367 0.082,3.33789 -0.8652,2.00781 -9.1602,2.28125 1.0039,-10.3789 -9.3906,2.73828 -2.7305,6.06836 -4.1269,-3.53711 -14.6075,0.34766 -7.1015,7.77929 -37.4199,15.6211 -7.58793,-24.75196 -34.98242,0.6875 -13.01563,4.43555 -5.0039,6.18555 -6.03906,14.01953 -8.6211,-0.29492 -2.65039,-8.26172 -7.87695,-1.37305 -8.5625,-8.55469 -5.07813,2.70899 -2.39257,-1.69727 1.51367,-7.30859 -8.74805,-4.99805 3.82422,-18.61719 2.52344,-3.30664 14.56445,-27.62304 4.81445,-7.57422 12.76172,-11.01367 27.7207,-47.37696 -1.22656,-4.52539 -0.32422,-0.53906 c 0.0971,0.16176 0.0348,0.0903 0.0234,-0.0137 -0.0151,-0.10356 -0.0237,-0.2628 -0.0312,-0.45118 -0.0113,-0.37681 -10e-4,-0.86737 0.0156,-1.34374 0.034,-0.95279 0.0957,-1.85938 0.0957,-1.85938 l 0.0156,-0.21484 -2.09765,-3.89063 -5.39453,-2.55273 -0.59961,-2.13477 -2.38281,-5.12305 -0.6504,-5.86718 2.8418,-1.97852 0.79102,-4.93945 -0.89453,-3.26953 z"
       id="path3295"
       transform="matrix(0.26458333,0,0,0.26458333,-105.64835,169.52869)"
       inkscape:connector-curvature="0">
      <title
         id="title3715">Alvdal</title>
    </path>
    <path
       style="display:inline;fill:url(#linearGradient3657);fill-opacity:1;stroke:none;stroke-width:4.10339;stroke-linejoin:round;stroke-miterlimit:3.864"
       d="m 1045.209,117.21289 -8.3262,8.61328 -4.8574,16.86133 h -7.125 l -11.293,6.02344 -12.9258,-1.49219 -10.07613,7.91406 -3.98633,12.68164 16.10746,8.29688 15.4648,22.94336 9.2188,3.07812 0.539,5.39649 2.3848,6.91601 3.7715,2.44336 5.7441,-1.24609 20.3223,12.70312 20.2031,19.22266 2.5176,-3.29297 16.4023,-0.0879 5.9571,1.35938 4.9316,11.68554 8.6445,55.28125 4.0528,-1.01758 2.1406,-1.60156 5.832,1.04102 3.4317,5.75 3.9433,3.0625 5.3731,-3.91211 7.5742,3.03515 10.3496,-5.17578 3.3808,6.2461 h 6.127 l 4.7539,5.0039 14.8887,0.25196 5.3144,10.62109 8.3203,2.61328 21.7247,-1.00976 8.0839,9.24804 38.127,-3.68945 7.3008,-12.94141 -19.7989,-22.24218 -14.373,-7.05665 -9.7734,-23.55468 -33.3731,-22.74414 h -6.082 l -1.1895,-4.17188 0.502,-8.03711 -0.9668,-5.55859 -2.0215,-4.04688 -0.5019,-15.58984 -14.543,-12.85156 h -20.1016 l -4.7832,6.04492 -10.1269,-1.09961 -4.2598,-11.71484 2.1191,-4.94532 -4.4668,-2.98242 -8.5703,1.76367 -12.2402,-11.19726 -0.707,-6.36328 h -5.4551 l -4.7852,6.37695 -7.455,-7.18164 -8.2461,-17.48828 -22.8614,-20.10156 -0.2422,-3.14454 -15.0371,-8.13476 z"
       id="path3293"
       transform="matrix(0.26458333,0,0,0.26458333,-105.64835,169.52869)"
       inkscape:connector-curvature="0" />
    <path
       style="display:inline;fill:url(#linearGradient3305);fill-opacity:1;stroke:none;stroke-width:4.10339;stroke-linejoin:round;stroke-miterlimit:3.864"
       d="m 1045.209,117.21289 4.998,6.80469 15.0371,8.13476 0.2422,3.14454 22.8614,20.10156 8.2461,17.48828 7.455,7.18164 4.7852,-6.37695 h 5.4551 l 0.707,6.36328 12.2402,11.19726 8.5703,-1.76367 4.4668,2.98242 -2.1191,4.94532 4.2598,11.71484 10.1269,1.09961 4.7832,-6.04492 h 20.1016 l 14.543,12.85156 0.5019,15.58984 2.0215,4.04688 0.9668,5.55859 -0.502,8.03711 1.1895,4.17188 h 6.082 l 33.3731,22.74414 9.7734,23.55468 14.373,7.05665 19.7989,22.24218 -7.3008,12.94141 -38.127,3.68945 -8.0839,-9.24804 -21.7247,1.00976 -8.3203,-2.61328 -5.3144,-10.62109 -14.8887,-0.25196 -4.7539,-5.0039 h -6.127 l -3.3808,-6.2461 -10.3496,5.17578 -7.5742,-3.03515 -5.3731,3.91211 -3.9433,-3.0625 -3.4317,-5.75 -5.832,-1.04102 -2.1406,1.60156 -4.0528,1.01758 -8.6445,-55.28125 -4.9316,-11.68554 -5.9571,-1.35938 -16.4023,0.0879 -2.5176,3.29297 -20.2031,-19.22266 -20.3223,-12.70312 -5.7441,1.24609 -3.7715,-2.44336 -2.3848,-6.91601 -0.539,-5.39649 -9.2188,-3.07812 -15.4648,-22.94336 -16.10746,-8.29688 3.98633,-12.68164 10.07613,-7.91406 12.9258,1.49219 11.293,-6.02344 h 7.125 l 4.8574,-16.86133 z"
       id="path3291"
       transform="matrix(0.26458333,0,0,0.26458333,-105.64835,169.52869)"
       inkscape:connector-curvature="0">
      <title
         id="title3721">Tolga</title>
    </path>
    <path
       style="display:inline;fill:url(#linearGradient3659);fill-opacity:1;stroke:none;stroke-width:4.10339;stroke-linejoin:round;stroke-miterlimit:3.864"
       d="m 906.36719,898.39648 0.44531,-0.54296 -0.008,-0.0137 z"
       id="path3289"
       transform="matrix(0.26458333,0,0,0.26458333,-105.64835,169.52869)"
       inkscape:connector-curvature="0" />
    <path
       style="display:inline;fill:url(#linearGradient3301);fill-opacity:1;stroke:none;stroke-width:4.10339;stroke-linejoin:round;stroke-miterlimit:3.864"
       d="m 808.0625,278.14648 -1.50977,3.0918 -13.02148,22.10742 -1.00391,4.80664 -7.30859,10.4668 h -10.03906 l -4.84507,5.83126 -0.0664,0.47678 -0.0167,0.58225 15.1879,22.29721 24.56641,8.1875 25.74219,13.62695 12.07617,20.48438 -12.89649,3.19726 -7.93554,14.76368 6.48828,33.89648 -4.15625,25.83008 17.32617,2.41406 21.06055,8.13477 v -11.0586 l 5.83203,-0.82617 6.62109,-2.11914 3.69922,3.69141 10.14844,-11.02149 0.77539,-4.40625 0.0957,-4.33398 3.42578,-2.53906 3.35938,1.61718 1.19531,-5.77343 -8.74805,-5.00586 4.11329,-20.01953 2.65625,-3.47657 14.53515,-27.56445 4.96875,-7.80859 12.74024,-10.99219 27.27734,-46.625 -1.01172,-3.71875 -0.21484,-0.35547 c -0.16592,-0.27326 -0.15506,-0.41548 -0.17774,-0.59766 -0.0215,-0.18221 -0.0354,-0.37995 -0.043,-0.59765 -0.0113,-0.43529 -0.003,-0.94487 0.0156,-1.43946 0.0299,-0.87072 0.0765,-1.49915 0.0879,-1.68359 l -1.66211,-3.08594 -5.57227,-2.62695 -0.74609,-2.6875 -2.43555,-5.23438 -0.7832,-6.99023 3.05664,-2.125 0.63477,-3.99414 -2.75391,-10.07617 -8.61328,-7.13867 -3.44141,-3.92774 -13.10937,-6.16992 3.75781,-26.05078 -11.69336,-6.92383 -4.87305,-0.8125 -1.21679,-5.85352 -15.41406,1.24024 -4.31055,-12.09961 -0.28125,-0.11914 -32.875,16.73437 1.125,5.36914 -6.75,15.57032 -8.4375,5.90625 -12.9375,-10.20118 -6.75,10.20118 9.5625,6.97851 -6.18945,1.61133 -0.56055,11.27539 z"
       id="path3287"
       transform="matrix(0.26458333,0,0,0.26458333,-105.64835,169.52869)"
       inkscape:connector-curvature="0"
       sodipodi:nodetypes="cccccccccccccccccccccccccccccccccccccccccccccccccccccccccccccccccccccc">
      <title
         id="title3713">Folldal</title>
    </path>
    <path
       id="path3275"
       style="display:inline;fill:url(#linearGradient5454);fill-opacity:1;stroke:none;stroke-width:4.10339;stroke-linejoin:round;stroke-miterlimit:3.864"
       d="m 228.83789,482.93945 1.41016,-0.73828 14.79297,17.38477 4.51757,52.67773 12.80079,48.6836 -5.72071,13.66211 18.12305,35.99414 21.39453,66.15429 13.82617,-13.6582 12.08399,20.63281 0.043,-0.11133 15.85742,6.60743 h 37.89062 l 1.04883,17.42773 -0.76172,8.07617 1.50586,3.01953 5.375,0.64844 12.85156,-2.46484 3.40235,-2.04493 h 2.98242 l 5.66211,1.66797 h 2.91601 l 5.375,-5.37304 2.22071,0.27929 0.73242,-14.54882 -6.2168,-12.1504 8.11328,-7.75976 6.05274,-2.53125 -22.69141,-63.14844 -3.98047,-3.48242 -5.35156,-12.23242 -2.48828,-13.21289 -28.22852,-50.4043 4.39258,-4.08203 1.77149,-6.13477 -4.07422,-11.22656 -18.52149,-39.97461 -4.97656,-4.96679 -12.09766,-19.92383 -2.66601,-10.40821 -11.25,-2.33984 -20.41797,12.59961 -18.69727,-13.31641 -17.13476,-16.38086 -6.76172,-13.51562 -6.11914,-6.60742 -29.29883,-19.70118 0.76758,-7.43359 -7.18945,-10.66015 -1.26172,-8.31836 -6.63672,-14.65235 -1.33399,2.20703 -1.12304,13.36914 -4.06641,2.59961 0.0293,6.69532 6.51758,5.16015 -4.36133,8.7168 -5.18946,8.5039 2.86329,8.9629 6.84375,4.55273 5.04882,20.09375 8.11914,5.89062 -4.38476,7.64844 9.25781,5.28516 z"
       transform="matrix(0.26458333,0,0,0.26458333,98.052393,187.53224)">
      <title
         id="title3717">Stor-Elvdal</title>
    </path>
    <path
       id="path5410"
       style="display:inline;fill:url(#linearGradient3315);fill-opacity:1;stroke:none;stroke-width:4.10339;stroke-linejoin:round;stroke-miterlimit:3.864"
       d="m 203.10938,374.18164 -10.46485,0.20703 -12.37891,4.22266 -4.5996,5.6914 -6.36329,14.77149 -10.70312,-0.36914 -2.69531,-8.40039 -7.44727,-1.29883 -8.11328,-8.10547 -4.91602,2.61914 -3.49218,-2.48047 -3.35157,-1.61523 -2.11132,1.56445 -0.0801,3.71289 -0.87891,4.95313 -10.48242,11.39843 7.64063,7.63282 2.125,4.01562 4.20898,0.60547 L 107,477.97852 l 33.0332,14.43945 24.60547,4.26758 24.97266,20.32226 10.20117,-17.23828 5.75781,-2 2.46485,-3.94922 19.60351,-10.2539 -6.10547,-7.90235 -10.1875,-5.82617 4.45899,-7.75781 -7.54492,-5.46875 -5.04883,-20.06445 -6.79883,-4.53321 -3.18945,-9.98047 5.47851,-8.98242 3.84571,-7.69922 -6.17188,-4.88086 -0.0293,-8.07617 4.13282,-2.64258 1.09179,-13.02148 z"
       transform="matrix(0.26458333,0,0,0.26458333,98.052393,187.53224)">
      <title
         id="title5408">Sollia</title>
    </path>
    <path
       id="path3273"
       style="display:inline;fill:url(#linearGradient3311);fill-opacity:1;stroke:none;stroke-width:4.10339;stroke-linejoin:round;stroke-miterlimit:3.864"
       d="m 488.01562,466.87695 0.40821,-8.39062 -5.18945,-5.01367 -3.20313,-13.08008 -23.93164,3.58008 -38.83008,-2.31836 -29.89648,4.92382 -11.9961,-3.46874 -32.97461,11.99609 -7.58007,11.75195 -5.19532,7.9082 2.63867,10.33008 11.89258,19.57618 5.03516,5.0332 18.66016,40.26953 4.25976,11.75195 -2.01562,6.99805 -3.83789,3.56445 27.76953,49.5918 2.50976,13.28711 5.14649,11.76758 3.57226,3.12304 41.53907,-12.19336 6.21679,1.49219 39.41211,-15.6582 35.07813,-17.61328 14.90429,-30.55274 2.27344,-3.67382 -6.21094,-4.47071 -6.25976,-13.48047 -2.19141,1.09961 -7.75976,-5.08593 -7.69922,-12.66602 -4.32422,-1.625 1.02539,-7.18164 -8.81445,-7.3457 -10.25391,-24.17579 -4.41992,-29.76367 z"
       transform="matrix(0.26458333,0,0,0.26458333,98.052393,187.53224)">
      <title
         id="title3727">Ytre Rendal</title>
    </path>
    <path
       id="path5339"
       style="display:inline;fill:url(#linearGradient5452);fill-opacity:1;stroke:none;stroke-width:4.10339;stroke-linejoin:round;stroke-miterlimit:3.864"
       d="m 395.0332,253.39258 -3.14453,6.53906 -10.94726,6.08398 1.96484,7.625 -6.74023,6.17774 -10.3711,-6.16992 -6.27539,9.41211 -20.86914,4.52343 -3.94922,3.25586 -6.52539,18.02735 -0.10351,18.96289 2.45117,2.45898 1.38086,9.92188 -20.75782,4.96094 7.69922,21.17773 1.91992,3.98633 0.0957,3.98633 -1.28516,2.99023 -11.94336,2.98242 1.00391,-10.29101 -6.61524,1.92578 -3.26171,7.26367 -5.21289,-4.46484 -13.39063,0.3164 -6.89453,7.56055 -39.24805,16.37891 -7.74414,-25.25196 -20.78711,0.4043 6.8125,15.03711 1.24024,8.1875 7.30859,10.83594 -0.73047,7.07226 28.69336,19.29688 6.38477,6.89453 6.74023,13.47851 16.86719,16.12305 17.79687,12.68164 20.08008,-12.39453 11.96875,2.48633 5.0625,-7.70313 7.81641,-12.1289 33.81054,-12.29688 12.1211,3.50586 29.74023,-4.90234 38.84375,2.32617 25.00391,-3.74219 3.39453,13.88477 5.35156,5.16797 -0.35937,7.2539 2.6914,-3.18945 5.57227,-2.11133 9.64062,-8.93164 1.98633,-7.90625 2.90039,-6.33398 2.52539,-6.91602 -2.25976,-10.22461 1.07031,-5.69922 -5.46094,-31.52148 -22.50781,-47.27344 -1.50586,-14.54883 -8.1875,-26.2793 -20.40234,-23.35742 -21.27539,0.99024 -9.17578,-2.88672 -5.18946,-10.37891 -14.60937,-0.24414 -4.7461,-4.99609 z"
       transform="matrix(0.26458333,0,0,0.26458333,98.052393,187.53224)">
      <title
         id="title5337">Øvre Rendal</title>
    </path>
    <path
       style="display:inline;fill:url(#linearGradient3313);fill-opacity:1;stroke:none;stroke-width:4.10339;stroke-linejoin:round;stroke-miterlimit:3.864"
       d="m 1316.5117,233.58398 3.6192,7.85743 h -6.6661 l -8.4218,20.4414 12.666,21.59961 v 68.125 l -5.4688,3.34375 -12.5058,-18.375 -18.9199,-5.74219 -7.6465,13.56055 -37.8399,3.66211 11.8028,13.50781 8.3203,26.72266 1.4902,14.44727 22.4922,47.2207 5.5371,31.98633 -1.0625,5.66992 2.2871,10.34765 -2.6933,7.39063 -2.8653,6.25977 -2.0586,8.20117 -10.1875,9.43359 -5.4844,2.07422 -3.6542,4.33984 4.289,28.90821 10.0391,23.6582 9.1836,7.65625 -0.9746,6.8125 3.6757,1.38086 7.795,12.83008 6.748,4.42187 2.8047,-1.40234 6.748,14.51953 5.8047,4.17969 0.959,-1.54883 0.2871,-3.63281 -0.7968,-7.35938 -0.6211,-10.68945 3.1308,-3.1211 -2.1777,-5.08007 2.8203,-6.67188 0.502,-10.01758 8.039,-16.63086 21.6875,51.28907 15.3477,-0.95899 11.6699,-4.84375 28.2363,-5.63281 15.2461,-8.48828 -37.3652,-44.14258 43.1484,-274 -11.5918,-33.78516 -10.5566,0.11524 -11.0996,9.78711 -9.4473,0.65429 -14.2246,-15.38671 -5.5781,-3.25391 -13.2032,-5.72266 z"
       id="path3271"
       transform="matrix(0.26458333,0,0,0.26458333,-105.64835,169.52869)"
       inkscape:connector-curvature="0">
      <title
         id="title3725">Engerdal</title>
    </path>
    <path
       style="display:inline;fill:url(#linearGradient3307);fill-opacity:1;stroke:none;stroke-width:4.10339;stroke-linejoin:round;stroke-miterlimit:3.864"
       d="m 1048.5625,97.236328 2.9629,13.435552 -5.2559,5.43945 4.9453,6.74805 15.459,8.36328 0.2578,3.35156 22.6407,19.90234 8.2519,17.51563 6.0469,5.82422 4.2148,-5.625 h 7.545 l 0.789,7.13086 11.2656,10.30664 8.4297,-1.73633 6.0313,4.01758 -2.377,5.55078 3.7344,10.2832 8.3711,0.9082 4.7246,-5.96484 h 21.3926 l 15.457,13.65625 0.502,15.9082 1.9785,3.94922 1.0332,5.94922 -0.4941,7.95703 0.8046,2.82813 h 5.418 l 34.127,23.25976 9.7226,23.44531 14.1289,6.93946 20.211,22.69922 19.7988,6.01562 11.9961,17.62891 3.5351,-2.15625 V 283.89453 L 1303.373,262 l 9.0801,-22.06445 h 5.3301 l -3.0742,-6.67383 -17.2598,-3.07031 -6.4687,9.66406 -4.5,7.24805 -9.8438,-0.80664 0.5606,-6.44141 -4.7793,-10.20117 -27.5625,5.09961 -30.9375,-55.30079 -13.5,-6.17382 -9.5625,-11.54297 -7.0313,-2.95313 -3.6562,-4.83203 -9.5625,-1.8789 -3.6543,-19.59571 -8.4395,-1.34375 -2.25,-9.39453 -6.4687,-8.58984 -1.9688,-16.107424 -5.9062,-1.341797 -1.6875,-6.710938 -24.1875,-3.490234 -21.375,-13.421875 -20.5313,1.341797 -14.0625,6.443359 z"
       id="path3269"
       transform="matrix(0.26458333,0,0,0.26458333,-105.64835,169.52869)"
       inkscape:connector-curvature="0">
      <title
         id="title3723">Os</title>
    </path>
    <path
       id="path1664-6"
       style="display:inline;fill:url(#linearGradient3303);fill-opacity:1;stroke:none;stroke-width:4.10339;stroke-linejoin:round;stroke-miterlimit:3.864"
       d="m 216.27148,101.22461 1.90821,37.55078 -25.81446,21.96875 -5.61718,-3.77148 -16.68946,21.26757 3.22461,13.08789 -4.49218,4.36329 2.55078,2.91406 8.88867,7.36133 1.66797,6.08984 12.17968,-0.082 8.64454,11.83398 2.92382,-5.21289 1.27735,-0.53125 1.26172,1.09375 0.64843,1.83789 3.84766,6.73243 13.92969,6.29492 2.02148,2.35547 3.45508,1.89062 17.08984,3.94141 5.9043,-0.98242 12.46094,-0.3379 6.23828,1.09961 2.83398,13.10157 -6.6582,11.98047 8.55469,32.25976 13,19.66602 2.26758,8.57812 16.60156,16.2461 19.84961,-4.7461 -1.12305,-8.08398 -2.53906,-2.53907 0.11133,-19.85742 6.7539,-18.65429 4.54688,-3.74219 20.63281,-4.47266 6.72461,-10.09179 10.63867,6.32617 5.25586,-4.8125 -2.03125,-7.87696 11.54492,-6.41406 2.97657,-6.19336 -2.7168,-5.02734 -9.65625,4.82812 -7.42578,-2.96875 -5.61719,4.08399 -5.05664,-3.92774 -3.22656,-5.40429 -4.51758,-0.8125 -1.86133,1.39648 -5.94141,1.49024 -8.85742,-56.72266 -4.57031,-10.80664 -5.04101,-1.15039 -15.48829,0.0879 -3.09179,4.0293 -21.29688,-20.26954 -19.68164,-12.29882 -5.75,1.25586 -4.73242,-3.06446 -2.61328,-7.57422 -0.45703,-4.60547 -8.78321,-2.93164 -15.5332,-23.04492 z"
       transform="matrix(0.26458332,0,0,0.26458332,98.052393,187.53224)">
      <title
         id="title3719">Tynset</title>
    </path>
    <path
       id="path6367"
       style="display:inline;fill:url(#linearGradient6375);fill-opacity:1;stroke:none;stroke-width:4.10339;stroke-linejoin:round;stroke-miterlimit:3.864"
       d="m 111.46079,-25.986175 -3.32032,6.024495 -5.55258,-3.137929 -0.5625,-5.33008 -4.888382,1.234965 -0.766139,13.506465 -6.470479,15.3113055 4.83399,15.2851565 5.10351,-0.494142 5.93945,71.568361 6.26758,41.044918 9.13672,8.9375 4.14844,11.63282 15.58398,-1.25391 1.28516,6.14844 4.13281,0.68554 12.80078,7.57422 -3.74219,25.94727 12.38672,5.83203 0.13477,0.1543 3.89453,-3.7793 -3.20312,-12.98437 17.86523,-22.75 5.80859,3.90429 24.53711,-20.89062 -1.91992,-37.81836 c 1.58099,-4.594297 3.04392,-9.464668 4.52539,-14.171878 l 10.92578,-8.578124 13.07422,1.505859 11.21289,-5.980469 h 6.36914 l 4.64453,-16.136719 14.34961,-14.84375 -2.69921,-12.21875 -5.95899,-0.949218 -3.9375,-10.738282 -12.09375,-4.564453 -14.625,6.173828 -65.25,-17.9863278 -1.66456,-15.6539302 -29.28871,-15.512838 z"
       transform="matrix(0.26458332,0,0,0.26458332,98.052393,187.53224)"
       sodipodi:nodetypes="cccccccccccccccccccccccccccccccccccccccccc">
      <title
         id="title6365">Kvikne</title>
    </path>
    <path
       style="fill:none;stroke:#000000;stroke-width:0.264583px;stroke-linecap:butt;stroke-linejoin:miter;stroke-opacity:1"
       d="M 180.02521,373.88112 Z"
       id="path3059"
       inkscape:connector-curvature="0" />
    <path
       style="fill:none;stroke:#000000;stroke-width:0.264583px;stroke-linecap:butt;stroke-linejoin:miter;stroke-opacity:1"
       d="M 151.05334,319.92808 Z"
       id="path3201"
       inkscape:connector-curvature="0" />
  </g>
</svg>
